<svg width="172" height="45" viewBox="0 0 172 45" fill="none" xmlns="http://www.w3.org/2000/svg">
<path d="M40.0404 21.8265C40.0404 21.1587 39.9691 20.4988 39.8242 19.8468C39.8175 19.7727 39.8169 19.698 39.8029 19.625C39.367 17.3257 38.469 15.2219 37.1189 13.3124C36.3612 12.2419 35.5008 11.2624 34.4849 10.4273C34.418 10.3633 34.3546 10.2953 34.2838 10.2369C31.4718 7.91855 28.2486 6.66558 24.6043 6.5145C23.5861 6.47238 22.5701 6.51731 21.5654 6.71163C21.4817 6.71837 21.3969 6.71837 21.3149 6.73353C19.1695 7.13846 17.1538 7.88092 15.3325 9.09964C11.4321 11.7089 9.01877 15.3196 8.22688 19.9479C7.69335 23.0666 8.10333 26.092 9.42482 28.9877C12.4216 35.5542 19.616 39.8888 27.4085 38.0916C33.6559 36.6505 37.6754 32.681 39.5305 26.5452C39.9944 25.0109 40.1196 23.4266 40.0404 21.8265ZM38.3595 26.2083C36.6617 31.674 33.1443 35.4076 27.5562 36.7679C21.3289 38.2831 16.1777 36.2495 12.234 31.2376C10.1903 28.6407 9.15749 25.6405 9.21814 22.3224C9.29396 18.1973 10.9041 14.713 13.8571 11.8622C15.8576 9.93084 18.2366 8.65933 20.9622 8.0584C20.9976 8.05053 21.0301 8.03144 21.0644 8.0174C21.0801 8.032 21.0964 8.04323 21.1133 8.05166C21.1284 8.03256 21.1447 8.01627 21.1621 8.00392C21.8327 7.91294 22.5005 7.79612 23.1778 7.75961C27.0299 7.55518 30.4311 8.71212 33.4156 11.1394C34.3776 11.9218 35.233 12.8159 35.9518 13.8133C37.4334 15.8711 38.4494 18.1367 38.7605 20.6847C38.8728 21.6013 38.8874 22.5184 38.8605 23.4384H38.8588C38.8588 23.4384 38.8537 23.4412 38.8509 23.4434C38.8537 23.4474 38.8565 23.4513 38.8599 23.4547C38.7582 24.3847 38.6381 25.3125 38.3595 26.2083Z" fill="white"/>
<path d="M36.4876 22.3247C32.4041 18.2731 28.3183 14.2239 24.2387 10.1684C24.0814 10.0123 24.0039 9.98531 23.8298 10.1594C20.8459 13.1411 17.8542 16.1148 14.8636 19.0903C13.7836 20.1647 12.7019 21.2379 11.6208 22.3118C11.4921 22.3932 11.3866 22.478 11.5747 22.6083C11.7404 22.7661 11.9061 22.9234 12.0717 23.0812C12.147 23.1632 12.2189 23.2485 12.2975 23.3272C16.1289 27.1383 19.9631 30.9478 23.7894 34.7651C23.9781 34.9533 24.0691 34.9909 24.2808 34.7786C26.4722 32.5804 28.6788 30.3968 30.8787 28.2065C31.7857 27.3034 32.6854 26.3936 33.5885 25.4866C34.5759 24.5178 35.5615 23.5473 36.5522 22.5825C36.6977 22.4404 36.5556 22.3926 36.4876 22.3247ZM24.6436 32.4821V29.9021C24.6425 28.9759 24.6425 28.0493 24.6414 27.1232V27.1024C24.6408 26.6233 24.6408 26.1448 24.6397 25.6663V25.6461C24.6391 25.1142 24.6385 24.5824 24.6374 24.0505V24.0449C24.6374 23.8309 24.6369 23.6175 24.6363 23.4035V23.3805C24.6363 23.2396 24.6425 23.1547 24.8463 23.1553C26.8418 23.1615 28.8372 23.1626 30.8321 23.1632H30.8489C31.8402 23.1632 32.8315 23.1632 33.8227 23.1637C33.8575 23.1637 33.8924 23.1699 33.9901 23.1783C30.8894 26.3088 27.7994 29.3797 24.6436 32.4821ZM24.6459 12.5581C24.7705 12.5957 24.8362 12.6873 24.9115 12.7608C25.9342 13.7628 26.9552 14.7669 27.9774 15.7694C28.0437 15.8346 28.1155 15.8936 28.1846 15.9553C28.2178 15.9879 28.2509 16.0199 28.284 16.0519C28.4037 16.2025 28.5379 16.3389 28.6923 16.4541C28.7109 16.5035 28.7446 16.5377 28.7945 16.5551C28.8198 16.6119 28.8603 16.6529 28.9175 16.6765C29.3758 17.1415 29.8296 17.6104 30.2924 18.071C31.2915 19.0639 32.2951 20.0529 33.2965 21.0431C33.3184 21.0992 33.3571 21.1391 33.4133 21.161C33.4318 21.2138 33.4672 21.2497 33.52 21.2683C33.5419 21.325 33.5807 21.3643 33.6374 21.3862C33.6565 21.4384 33.6919 21.4738 33.7441 21.4929C33.8059 21.571 33.8677 21.6485 33.9283 21.7249C33.8688 21.7996 33.798 21.7675 33.7385 21.7675C30.8096 21.7681 27.8802 21.7642 24.9514 21.7704C24.72 21.7709 24.6357 21.7383 24.6369 21.4733C24.6414 19.9895 24.6419 18.5051 24.6408 17.0213V17.0056C24.6447 16.8017 24.6492 16.6001 24.6593 16.3962C24.6683 16.2058 24.6537 16.0132 24.6402 15.82V15.8048C24.6391 14.7742 24.6374 13.7442 24.6369 12.7137C24.6369 12.6687 24.6419 12.6232 24.6459 12.5581ZM23.3058 12.662C23.3406 12.7266 23.353 12.8007 23.3496 12.8895C23.3479 12.9327 23.3451 12.9911 23.3592 13.036V13.66C23.3171 13.7285 23.3491 13.8268 23.3491 13.9009C23.3429 16.4462 23.344 18.9915 23.344 21.5367C23.344 21.5783 23.3463 21.6193 23.3513 21.6586C23.3339 21.7305 23.2834 21.7732 23.1379 21.7726C20.2107 21.7636 17.2836 21.7664 14.3558 21.7664H14.143C17.2005 18.696 20.2141 15.6852 23.3058 12.662ZM23.3603 32.28C23.3603 32.3047 23.3519 32.3288 23.339 32.4035C20.2253 29.3545 17.1769 26.2914 14.0902 23.1609H15.7167C18.1765 23.1609 20.637 23.162 23.0975 23.1592C23.2626 23.1592 23.367 23.1525 23.3665 23.3833C23.3575 26.3487 23.3609 29.314 23.3603 32.28Z" fill="white"/>
<path d="M19.58 32.0401C18.9724 32.0424 18.3641 32.0463 17.7565 32.0328C15.9042 31.9907 14.5743 30.6468 14.5513 28.7973C14.544 28.1897 14.549 27.582 14.5468 26.9738C14.5468 26.8828 14.5648 26.7862 14.4873 26.7104C14.129 26.361 13.7723 26.0111 13.373 25.6203C13.4224 26.8036 13.3449 27.9257 13.4202 29.0473C13.5769 31.3729 15.3263 33.0937 17.6537 33.1662C18.7095 33.1988 19.7671 33.1757 20.824 33.1769C20.8656 33.1769 20.9189 33.1926 20.9459 33.1241C20.61 32.8068 20.2691 32.4894 19.9344 32.1654C19.8316 32.0654 19.7182 32.0396 19.58 32.0401Z" fill="white"/>
<path d="M28.5154 12.9641C29.1051 12.9574 29.6943 12.9546 30.2834 12.9664C31.9671 12.999 33.3611 14.2615 33.5442 15.9368C33.6172 16.6068 33.5576 17.283 33.5678 17.9558C33.5689 18.0479 33.5369 18.1496 33.6003 18.2288C33.9328 18.6388 34.3203 18.9937 34.7185 19.352C34.7039 18.1159 34.8303 16.891 34.6455 15.6762C34.3473 13.7117 32.8214 12.1453 30.9433 11.8976C29.6898 11.732 28.4267 11.8729 27.1681 11.8201C27.491 12.1622 27.7977 12.4778 28.0931 12.803C28.2121 12.9338 28.3464 12.9664 28.5154 12.9641Z" fill="white"/>
<path d="M14.4002 18.3259C14.5131 18.2097 14.5485 18.0833 14.5457 17.9238C14.5361 17.3908 14.5356 16.8579 14.5395 16.3249C14.5547 14.4131 15.9492 13.0012 17.8626 12.9658C18.4422 12.9557 19.0218 12.9675 19.6014 12.967C19.6845 12.967 19.8002 12.9872 19.8457 12.9428C20.2107 12.5806 20.5629 12.206 20.9111 11.842C19.8086 11.842 18.6949 11.7949 17.5863 11.8521C15.3915 11.9661 13.6583 13.6577 13.4303 15.8458C13.3101 17.0022 13.409 18.1625 13.4252 19.3554C13.7499 19.0117 14.0711 18.6652 14.4002 18.3259Z" fill="white"/>
<path d="M34.7118 27.523C34.7213 26.903 34.714 26.283 34.714 25.5927C34.358 25.9595 34.0232 26.2498 33.7424 26.5947C33.5801 26.6924 33.5414 26.8395 33.5408 27.0226C33.5397 27.7803 33.6127 28.5435 33.5099 29.2944C33.2976 30.8461 32.0373 31.9649 30.4552 32.03C29.792 32.0576 29.127 32.0357 28.4626 32.0368C28.3615 32.0373 28.2599 32.0194 28.1751 32.1075C27.8353 32.4597 27.491 32.8079 27.1164 33.1903C28.3868 33.1589 29.619 33.2386 30.8495 33.1364C31.0163 33.1229 31.1831 33.0881 31.3465 33.0511C33.1825 32.6327 34.6343 30.9152 34.6562 29.1388C34.6668 29.113 34.6781 29.0883 34.6781 29.0591V29.0119C34.7539 28.5177 34.7045 28.0189 34.7118 27.523Z" fill="white"/>
<path d="M154.876 30.3536V13.9633H158.621V16.695H158.792C159.09 15.7489 159.603 15.0197 160.328 14.5075C161.061 13.9882 161.897 13.7286 162.836 13.7286C163.049 13.7286 163.288 13.7392 163.551 13.7606C163.821 13.7748 164.045 13.7997 164.223 13.8353V17.3886C164.059 17.3317 163.8 17.2819 163.444 17.2392C163.096 17.1894 162.758 17.1645 162.43 17.1645C161.726 17.1645 161.093 17.3175 160.531 17.6234C159.976 17.9222 159.539 18.3383 159.219 18.8719C158.898 19.4054 158.738 20.0207 158.738 20.7179V30.3536H154.876Z" fill="white"/>
<path d="M144.92 30.6737C143.277 30.6737 141.858 30.3322 140.663 29.6493C139.475 28.9593 138.561 27.9847 137.92 26.7255C137.28 25.4593 136.96 23.9689 136.96 22.2545C136.96 20.5685 137.28 19.0888 137.92 17.8155C138.568 16.535 139.471 15.539 140.631 14.8276C141.79 14.1092 143.153 13.7499 144.718 13.7499C145.728 13.7499 146.681 13.9135 147.577 14.2408C148.481 14.5609 149.278 15.0588 149.968 15.7347C150.665 16.4105 151.213 17.2712 151.611 18.317C152.009 19.3556 152.209 20.5934 152.209 22.0304V23.2148H138.774V20.6112H148.506C148.499 19.8713 148.339 19.2133 148.026 18.6371C147.713 18.0538 147.275 17.5949 146.713 17.2606C146.158 16.9262 145.511 16.7591 144.771 16.7591C143.981 16.7591 143.288 16.9511 142.69 17.3353C142.093 17.7123 141.627 18.2103 141.292 18.8292C140.965 19.441 140.798 20.1132 140.791 20.8459V23.1188C140.791 24.0721 140.965 24.8901 141.314 25.5731C141.662 26.2489 142.15 26.7682 142.776 27.131C143.402 27.4867 144.134 27.6645 144.974 27.6645C145.536 27.6645 146.044 27.5863 146.5 27.4298C146.955 27.2662 147.35 27.0279 147.684 26.7148C148.019 26.4018 148.271 26.0141 148.442 25.5517L152.049 25.9572C151.821 26.9105 151.387 27.7428 150.747 28.4542C150.114 29.1584 149.303 29.7062 148.314 30.0975C147.325 30.4816 146.194 30.6737 144.92 30.6737Z" fill="white"/>
<path d="M131.93 30.5883C131.282 30.5883 130.727 30.3607 130.265 29.9054C129.803 29.4501 129.575 28.8952 129.582 28.2408C129.575 27.6005 129.803 27.0528 130.265 26.5975C130.727 26.1422 131.282 25.9145 131.93 25.9145C132.556 25.9145 133.1 26.1422 133.562 26.5975C134.032 27.0528 134.27 27.6005 134.277 28.2408C134.27 28.6747 134.156 29.0695 133.936 29.4252C133.722 29.7809 133.438 30.0655 133.082 30.2789C132.733 30.4852 132.349 30.5883 131.93 30.5883Z" fill="white"/>
<path d="M115.703 20.7499V30.3536H111.84V13.9633H115.532V16.7484H115.724C116.101 15.8307 116.702 15.1015 117.528 14.5609C118.36 14.0202 119.388 13.7499 120.611 13.7499C121.742 13.7499 122.728 13.9918 123.567 14.4755C124.414 14.9593 125.068 15.66 125.531 16.5776C126 17.4953 126.231 18.6086 126.224 19.9176V30.3536H122.361V20.5151C122.361 19.4196 122.077 18.5624 121.508 17.9435C120.946 17.3246 120.167 17.0151 119.171 17.0151C118.495 17.0151 117.894 17.1645 117.367 17.4633C116.848 17.755 116.439 18.1783 116.14 18.7331C115.849 19.288 115.703 19.9603 115.703 20.7499Z" fill="white"/>
<path d="M97.9928 20.7499V30.3536H94.13V13.9633H97.8221V16.7484H98.0142C98.3912 15.8307 98.9923 15.1015 99.8175 14.5609C100.65 14.0202 101.678 13.7499 102.901 13.7499C104.032 13.7499 105.018 13.9918 105.857 14.4755C106.704 14.9593 107.358 15.66 107.821 16.5776C108.29 17.4953 108.521 18.6086 108.514 19.9176V30.3536H104.651V20.5151C104.651 19.4196 104.367 18.5624 103.798 17.9435C103.236 17.3246 102.457 17.0151 101.461 17.0151C100.785 17.0151 100.184 17.1645 99.6575 17.4633C99.1382 17.755 98.7291 18.1783 98.4303 18.7331C98.1387 19.288 97.9928 19.9603 97.9928 20.7499Z" fill="white"/>
<path d="M82.1929 30.6844C81.1543 30.6844 80.2188 30.4994 79.3865 30.1295C78.5613 29.7524 77.9068 29.1976 77.4231 28.4648C76.9465 27.7321 76.7081 26.8287 76.7081 25.7545C76.7081 24.8297 76.8789 24.0649 77.2203 23.4603C77.5618 22.8556 78.0277 22.3719 78.6182 22.0091C79.2086 21.6462 79.8738 21.3724 80.6136 21.1874C81.3606 20.9953 82.1324 20.8566 82.9292 20.7712C83.8895 20.6717 84.6685 20.5827 85.2661 20.5045C85.8636 20.4191 86.2976 20.2911 86.5679 20.1203C86.8453 19.9425 86.9841 19.6686 86.9841 19.2987V19.2347C86.9841 18.4308 86.7457 17.8083 86.2691 17.3673C85.7925 16.9262 85.106 16.7057 84.2097 16.7057C83.2635 16.7057 82.513 16.912 81.9581 17.3246C81.4104 17.7372 81.0405 18.2245 80.8484 18.7865L77.2417 18.2743C77.5262 17.2784 77.9957 16.446 78.6502 15.7773C79.3047 15.1015 80.105 14.5964 81.0511 14.2621C81.9973 13.9206 83.043 13.7499 84.1883 13.7499C84.978 13.7499 85.764 13.8424 86.5466 14.0273C87.3291 14.2123 88.044 14.5182 88.6914 14.945C89.3387 15.3647 89.858 15.9374 90.2493 16.663C90.6477 17.3886 90.8469 18.2956 90.8469 19.3841V30.3536H87.1334V28.102H87.0054C86.7706 28.5573 86.4398 28.9842 86.013 29.3825C85.5933 29.7738 85.0633 30.0903 84.4231 30.3322C83.79 30.567 83.0466 30.6844 82.1929 30.6844ZM83.1959 27.8459C83.9714 27.8459 84.6436 27.693 85.2127 27.3871C85.7818 27.0741 86.2193 26.6615 86.5252 26.1493C86.8382 25.6371 86.9947 25.0787 86.9947 24.474V22.5426C86.8738 22.6422 86.6675 22.7347 86.3758 22.82C86.0913 22.9054 85.7711 22.9801 85.4155 23.0441C85.0598 23.1081 84.7076 23.165 84.3591 23.2148C84.0105 23.2646 83.7081 23.3073 83.452 23.3429C82.8758 23.4211 82.3601 23.5492 81.9048 23.727C81.4495 23.9049 81.0903 24.1539 80.827 24.474C80.5638 24.787 80.4322 25.1925 80.4322 25.6905C80.4322 26.4018 80.6919 26.9389 81.2112 27.3017C81.7305 27.6645 82.3921 27.8459 83.1959 27.8459Z" fill="white"/>
<path d="M74.1052 8.49991V30.3536H70.2424V8.49991H74.1052Z" fill="white"/>
<path d="M52.0629 36.4999V13.9633H55.8617V16.6737H56.0858C56.285 16.2753 56.566 15.852 56.9288 15.4039C57.2916 14.9486 57.7824 14.5609 58.4013 14.2408C59.0202 13.9135 59.8099 13.7499 60.7702 13.7499C62.0365 13.7499 63.1783 14.0736 64.1955 14.7209C65.2199 15.3612 66.0309 16.3109 66.6285 17.57C67.2331 18.8221 67.5355 20.3586 67.5355 22.1798C67.5355 23.9796 67.2403 25.509 66.6498 26.7682C66.0594 28.0273 65.2555 28.9877 64.2382 29.6493C63.2209 30.3109 62.0685 30.6417 60.7809 30.6417C59.8419 30.6417 59.0629 30.4852 58.444 30.1722C57.8251 29.8591 57.3271 29.4821 56.9501 29.0411C56.5802 28.5929 56.2921 28.1696 56.0858 27.7712H55.9257V36.4999H52.0629ZM55.851 22.1584C55.851 23.2184 56.0004 24.1468 56.2992 24.9435C56.6051 25.7402 57.0426 26.3627 57.6117 26.8109C58.1879 27.2519 58.8851 27.4725 59.7032 27.4725C60.5568 27.4725 61.2718 27.2448 61.848 26.7895C62.4242 26.3271 62.8581 25.6976 63.1498 24.9008C63.4486 24.097 63.598 23.1828 63.598 22.1584C63.598 21.1412 63.4521 20.2377 63.1605 19.4481C62.8688 18.6584 62.4349 18.0395 61.8586 17.5914C61.2824 17.1432 60.5639 16.9191 59.7032 16.9191C58.878 16.9191 58.1772 17.1361 57.601 17.57C57.0248 18.004 56.5873 18.6122 56.2885 19.3947C55.9969 20.1772 55.851 21.0985 55.851 22.1584Z" fill="white"/>
</svg>
